<?xml version="1.0" encoding="utf-8"?>
<!-- Generator: Adobe Illustrator 16.2.1, SVG Export Plug-In . SVG Version: 6.00 Build 0)  -->
<!DOCTYPE svg PUBLIC "-//W3C//DTD SVG 1.1//EN" "http://www.w3.org/Graphics/SVG/1.1/DTD/svg11.dtd">
<svg version="1.1" xmlns="http://www.w3.org/2000/svg" xmlns:xlink="http://www.w3.org/1999/xlink" x="0px" y="0px"
	 width="181.138px" height="57.855px" viewBox="0 0 181.138 57.855" enable-background="new 0 0 181.138 57.855"
	 xml:space="preserve">
<g id="raw" display="none">
	<circle display="inline" opacity="0.6" fill="#58595B" cx="-579.399" cy="122.894" r="198"/>
	<g display="inline" opacity="0.8">
		<polygon fill="#ED1C24" points="-446.43,229.935 -645.161,150.07 -476.628,17.906 		"/>
	</g>
	<g display="inline" opacity="0.8">
		<polygon fill="#ED1C24" points="-527.645,166.015 -727.15,88.104 -559.922,-45.708 		"/>
	</g>
	<g display="inline" opacity="0.8">
		<polygon fill="#ED1C24" points="-542.97,283.657 -728.157,176.059 -542.379,69.489 		"/>
	</g>
	<g display="inline" opacity="0.8">
		<polygon fill="#FFFFFF" points="-149.364,81.331 -149.478,81.418 -243.525,135.368 -226.667,141.952 -252.161,161.944 
			-149.715,203.114 -149.63,172.037 -134.646,177.89 		"/>
	</g>
	<g display="inline" opacity="0.8">
		<polygon fill="#ED1C24" points="-542.636,68.126 -542.639,68.094 -542.812,68.216 		"/>
	</g>
	<g display="inline" opacity="0.8">
		<polygon fill="#ED1C24" points="-542.626,68.122 -542.636,68.126 -542.63,68.186 		"/>
	</g>
	<g display="inline" opacity="0.8">
		<polygon fill="#ED1C24" points="-544.584,69.667 -544.587,69.668 -544.584,69.729 		"/>
	</g>
</g>
<g id="Layer_1">
	<defs>
		<path id="SVGID_1_" d="M28.928,0C12.951,0,0,12.951,0,28.928s12.951,28.928,28.928,28.928s28.928-12.951,28.928-28.928
			S44.904,0,28.928,0z M34.287,38.913L34.25,52.415L7.194,36.695l13.388-7.68L7.341,23.845l24.432-19.55l2.565,16.826l9.604-7.532
			l4.412,30.978L34.287,38.913z"/>
	</defs>
	<clipPath id="SVGID_2_">
		<use xlink:href="#SVGID_1_"  overflow="visible" opacity="0.6"/>
	</clipPath>
	<circle clip-path="url(#SVGID_2_)" fill="#FFFFFF" cx="28.928" cy="28.928" r="28.928"/>
	<circle opacity="0.6" clip-path="url(#SVGID_2_)" fill="#2BABE2" cx="28.928" cy="28.928" r="28.928"/>
	<g opacity="0.4" clip-path="url(#SVGID_2_)">
		<polygon fill="#2BABE2" points="75.026,55.284 19.32,32.898 66.56,-4.148 		"/>
	</g>
	<g opacity="0.4" clip-path="url(#SVGID_2_)">
		<polygon fill="#2BABE2" points="36.489,35.228 -15.349,14.984 28.103,-19.784 		"/>
	</g>
	<g opacity="0.4" clip-path="url(#SVGID_2_)">
		<polygon fill="#2BABE2" points="34.179,78.288 -15.249,49.57 34.336,21.125 		"/>
	</g>
	<g opacity="0.4" clip-path="url(#SVGID_2_)">
		<polygon fill="#2BABE2" points="34.338,21.121 34.322,21.134 20.582,29.016 23.045,29.977 19.32,32.898 34.287,38.913 
			34.299,34.373 36.489,35.228 		"/>
	</g>
	<g opacity="0.4" clip-path="url(#SVGID_2_)">
		<polygon fill="#2BABE2" points="34.299,20.926 34.298,20.921 34.273,20.939 		"/>
	</g>
	<g opacity="0.4" clip-path="url(#SVGID_2_)">
		<polygon fill="#2BABE2" points="34.301,20.926 34.299,20.926 34.3,20.935 		"/>
	</g>
	<g opacity="0.4" clip-path="url(#SVGID_2_)">
		<polygon fill="#2BABE2" points="34.015,21.151 34.014,21.151 34.014,21.16 		"/>
	</g>
	<polyline opacity="0.4" clip-path="url(#SVGID_2_)" fill="#2BABE2" points="34.322,21.134 66.013,-3.719 28.451,-17.281 
		34.322,21.134 	"/>
	<line opacity="0.4" clip-path="url(#SVGID_2_)" fill="#2BABE2" x1="43.942" y1="13.589" x2="48.354" y2="44.566"/>
	<polygon opacity="0.35" clip-path="url(#SVGID_2_)" fill="#2BABE2" points="52.923,76.648 39.373,-18.492 89.888,14.406 	"/>
	<polygon opacity="0.3" clip-path="url(#SVGID_2_)" fill="#2BABE2" points="-20.878,46.45 54.122,-13.635 -5.223,-24.228 	"/>
	<polygon opacity="0.5" clip-path="url(#SVGID_2_)" fill="#2BABE2" points="-22.903,19.181 60.172,67.489 3.052,86.759 	"/>
	<polyline opacity="0.46" clip-path="url(#SVGID_2_)" fill="#2BABE2" points="34.287,38.913 34.179,78.288 58.805,55.284 
		53.043,46.45 34.287,38.913 	"/>
	<polygon clip-path="url(#SVGID_2_)" fill="#2BABE2" points="7.217,36.697 -0.159,32.406 -0.784,41.281 	"/>
	<polygon opacity="0.01" clip-path="url(#SVGID_2_)" fill="#FFFFFF" points="7.341,23.859 -1.596,20.344 -0.556,30.169 	"/>
	<polygon opacity="0.3" clip-path="url(#SVGID_2_)" fill="#FFFFFF" points="43.942,13.593 52.942,6.531 42.281,1.926 	"/>
	<polygon opacity="0.6" clip-path="url(#SVGID_2_)" fill="#2BABE2" points="31.751,4.313 39.821,-2.178 30.627,-3.039 	"/>
	<polygon opacity="0.3" clip-path="url(#SVGID_2_)" fill="#FFFFFF" points="34.263,52.406 40.779,56.203 34.236,57.735 	"/>
	<polygon opacity="0.7" clip-path="url(#SVGID_2_)" fill="#2BABE2" points="48.354,44.566 49.31,51.219 53.043,46.45 	"/>
</g>
<g id="Layer_2">
	<polygon opacity="0.94" fill="#2BABE2" points="36.489,35.228 34.338,21.121 34.322,21.134 20.582,29.016 23.045,29.977 
		19.32,32.898 34.287,38.913 34.299,34.373 	"/>
	<g>
		<g>
			<g>
				<path fill="#3B454F" d="M68.711,9.01v10.008c1.228-2.549,3.683-3.697,6.29-3.697c4.234,0,7.608,2.933,7.608,8.128
					c0,5.228-3.344,8.128-7.577,8.128c-2.578,0-5.062-1.339-6.321-3.729v3.474H67.24V9.01H68.711z M68.743,23.417
					c0,3.92,2.639,6.629,6.197,6.629c3.405,0,6.198-2.231,6.198-6.599c0-4.431-2.793-6.63-6.198-6.63
					C71.443,16.818,68.743,19.496,68.743,23.417z"/>
				<path fill="#3B454F" d="M83.948,23.48c0-5.003,3.571-8.19,8-8.19c4.432,0,8.001,3.187,8.001,8.19
					c0,5.004-3.569,8.064-8.001,8.064C87.519,31.544,83.948,28.484,83.948,23.48z M98.419,23.48c0-4.079-2.901-6.725-6.471-6.725
					c-3.569,0-6.469,2.646-6.469,6.725c0,4.08,2.9,6.535,6.469,6.535C95.519,30.015,98.419,27.56,98.419,23.48z"/>
				<path fill="#3B454F" d="M101.303,23.48c0-5.003,3.57-8.19,8-8.19c4.432,0,8,3.187,8,8.19c0,5.004-3.569,8.064-8,8.064
					C104.874,31.544,101.303,28.484,101.303,23.48z M115.774,23.48c0-4.079-2.9-6.725-6.471-6.725c-3.57,0-6.47,2.646-6.47,6.725
					c0,4.08,2.9,6.535,6.47,6.535C112.874,30.015,115.774,27.56,115.774,23.48z"/>
				<path fill="#3B454F" d="M120.436,15.576v2.805c1.211-2.167,3.41-3.06,5.61-3.091c4.207,0,7.107,2.582,7.107,6.948v9.083h-1.562
					v-9.052c0-3.569-2.199-5.482-5.609-5.45c-3.251,0.032-5.515,2.487-5.515,5.737v8.765h-1.562V15.576H120.436z"/>
				<path fill="#3B454F" d="M148.483,29.122c-1.593,1.593-3.666,2.358-5.738,2.358c-4.43,0-8.095-3.06-8.095-8.032
					c0-4.972,3.538-8.032,8.095-8.032c2.072,0,4.145,0.796,5.738,2.358l-1.02,0.988c-1.274-1.275-3.029-1.881-4.718-1.881
					c-3.569,0-6.566,2.327-6.566,6.566c0,4.24,2.997,6.566,6.566,6.566c1.689,0,3.411-0.669,4.686-1.945L148.483,29.122z"/>
				<path fill="#3B454F" d="M149.042,23.48c0-5.003,3.57-8.19,8-8.19c4.431,0,8,3.187,8,8.19c0,5.004-3.57,8.064-8,8.064
					C152.612,31.544,149.042,28.484,149.042,23.48z M163.513,23.48c0-4.079-2.901-6.725-6.471-6.725s-6.47,2.646-6.47,6.725
					c0,4.08,2.9,6.535,6.47,6.535S163.513,27.56,163.513,23.48z"/>
				<path fill="#3B454F" d="M168.42,15.576v2.805c1.212-2.167,3.411-3.06,5.61-3.091c4.208,0,7.107,2.582,7.107,6.948v9.083h-1.562
					v-9.052c0-3.569-2.199-5.482-5.609-5.45c-3.251,0.032-5.514,2.487-5.514,5.737v8.765h-1.562V15.576H168.42z"/>
			</g>
		</g>
		<g>
			<path fill="#3B454F" d="M79.908,48.524H76.7l-4.168-4.783h-2.596v4.783H67.24V34.201c2.268,0,4.536,0.021,6.804,0.021
				c3.372,0.02,5.149,2.268,5.149,4.74c0,1.962-0.899,3.943-3.616,4.496l4.332,4.882V48.524z M69.936,36.735v4.577h4.107
				c1.716,0,2.453-1.145,2.453-2.289s-0.756-2.288-2.453-2.288H69.936z"/>
			<path fill="#3B454F" d="M94.563,41.453c-0.041,3.699-2.309,7.397-7.334,7.397c-5.026,0-7.354-3.616-7.354-7.376
				c0-3.758,2.409-7.539,7.354-7.539C92.155,33.935,94.605,37.716,94.563,41.453z M82.532,41.515
				c0.058,2.351,1.327,4.864,4.697,4.864c3.373,0,4.638-2.534,4.68-4.884c0.041-2.409-1.307-5.106-4.68-5.106
				C83.859,36.388,82.47,39.105,82.532,41.515z"/>
			<path fill="#3B454F" d="M108.65,46.725c-1.472,1.451-3.373,2.125-5.434,2.125c-5.311,0-7.562-3.657-7.582-7.376
				c-0.017-3.738,2.412-7.539,7.582-7.539c1.941,0,3.78,0.736,5.249,2.187l-1.797,1.736c-0.94-0.919-2.206-1.349-3.451-1.349
				c-3.455,0-4.944,2.575-4.923,4.964c0.021,2.37,1.389,4.842,4.923,4.842c1.246,0,2.655-0.511,3.596-1.449L108.65,46.725z"/>
			<path fill="#3B454F" d="M121.162,34.304l-6.354,6.844l6.885,7.212v0.165h-3.331l-5.987-6.335v6.335h-2.696V34.222h2.696v6.048
				l5.438-6.048h3.348V34.304z"/>
			<path fill="#3B454F" d="M133.225,48.524h-10.704c0-4.762,0-9.542,0-14.303h10.704v2.616h-8.028v3.288h7.743v2.513h-7.743v3.229
				h8.028V48.524z"/>
			<path fill="#3B454F" d="M138.837,36.673h-4.535v-2.451c4.126,0,7.619,0,11.771,0v2.451h-4.539v11.852h-2.696V36.673z"/>
			<path fill="#3B454F" d="M155.524,37.675c-0.49-0.817-1.838-1.594-3.39-1.594c-2.003,0-2.964,0.837-2.964,1.901
				c0,1.246,1.472,1.593,3.188,1.798c2.984,0.367,5.76,1.144,5.76,4.555c0,3.188-2.817,4.557-6.004,4.557
				c-2.922,0-5.17-0.899-6.233-3.515l2.247-1.165c0.635,1.573,2.289,2.268,4.024,2.268c1.699,0,3.291-0.592,3.291-2.145
				c0-1.348-1.411-1.901-3.308-2.104c-2.923-0.349-5.619-1.124-5.619-4.331c0-2.942,2.902-4.148,5.537-4.168
				c2.226,0,4.536,0.635,5.616,2.841L155.524,37.675z"/>
		</g>
	</g>
</g>
</svg>
