<?xml version="1.0" encoding="utf-8"?>
<!-- Generator: Adobe Illustrator 16.2.1, SVG Export Plug-In . SVG Version: 6.00 Build 0)  -->
<!DOCTYPE svg PUBLIC "-//W3C//DTD SVG 1.1//EN" "http://www.w3.org/Graphics/SVG/1.1/DTD/svg11.dtd">
<svg version="1.1" xmlns="http://www.w3.org/2000/svg" xmlns:xlink="http://www.w3.org/1999/xlink" x="0px" y="0px"
	 width="181.138px" height="57.855px" viewBox="0 0 181.138 57.855" enable-background="new 0 0 181.138 57.855"
	 xml:space="preserve">
<g id="raw" display="none">
	<circle display="inline" opacity="0.6" fill="#58595B" cx="-579.399" cy="122.894" r="198"/>
	<g display="inline" opacity="0.8">
		<polygon fill="#ED1C24" points="-446.43,229.935 -645.161,150.07 -476.628,17.906 		"/>
	</g>
	<g display="inline" opacity="0.8">
		<polygon fill="#ED1C24" points="-527.645,166.015 -727.15,88.104 -559.922,-45.708 		"/>
	</g>
	<g display="inline" opacity="0.8">
		<polygon fill="#ED1C24" points="-542.97,283.657 -728.157,176.059 -542.379,69.489 		"/>
	</g>
	<g display="inline" opacity="0.8">
		<polygon fill="#FFFFFF" points="-149.364,81.331 -149.478,81.418 -243.525,135.368 -226.667,141.952 -252.161,161.944 
			-149.715,203.114 -149.63,172.037 -134.646,177.89 		"/>
	</g>
	<g display="inline" opacity="0.8">
		<polygon fill="#ED1C24" points="-542.636,68.126 -542.639,68.094 -542.812,68.216 		"/>
	</g>
	<g display="inline" opacity="0.8">
		<polygon fill="#ED1C24" points="-542.626,68.122 -542.636,68.126 -542.63,68.186 		"/>
	</g>
	<g display="inline" opacity="0.8">
		<polygon fill="#ED1C24" points="-544.584,69.667 -544.587,69.668 -544.584,69.729 		"/>
	</g>
</g>
<g id="final">
	<g id="text">
		<g>
			<path fill="#3B454F" d="M68.711,9.01v10.008c1.228-2.549,3.683-3.697,6.29-3.697c4.234,0,7.608,2.933,7.608,8.128
				c0,5.228-3.344,8.128-7.577,8.128c-2.578,0-5.062-1.339-6.321-3.729v3.474H67.24V9.01H68.711z M68.743,23.417
				c0,3.92,2.639,6.629,6.197,6.629c3.405,0,6.198-2.231,6.198-6.599c0-4.431-2.793-6.63-6.198-6.63
				C71.443,16.818,68.743,19.496,68.743,23.417z"/>
			<path fill="#3B454F" d="M83.948,23.48c0-5.003,3.571-8.19,8-8.19c4.432,0,8.001,3.187,8.001,8.19
				c0,5.004-3.569,8.064-8.001,8.064C87.519,31.544,83.948,28.484,83.948,23.48z M98.419,23.48c0-4.079-2.901-6.725-6.471-6.725
				c-3.569,0-6.469,2.646-6.469,6.725c0,4.08,2.9,6.535,6.469,6.535C95.519,30.015,98.419,27.56,98.419,23.48z"/>
			<path fill="#3B454F" d="M101.303,23.48c0-5.003,3.57-8.19,8-8.19c4.432,0,8,3.187,8,8.19c0,5.004-3.569,8.064-8,8.064
				C104.874,31.544,101.303,28.484,101.303,23.48z M115.774,23.48c0-4.079-2.9-6.725-6.471-6.725c-3.57,0-6.47,2.646-6.47,6.725
				c0,4.08,2.9,6.535,6.47,6.535C112.874,30.015,115.774,27.56,115.774,23.48z"/>
			<path fill="#3B454F" d="M120.436,15.576v2.805c1.211-2.167,3.41-3.06,5.61-3.091c4.207,0,7.107,2.582,7.107,6.948v9.083h-1.562
				v-9.052c0-3.569-2.199-5.482-5.609-5.45c-3.251,0.032-5.515,2.487-5.515,5.737v8.765h-1.562V15.576H120.436z"/>
			<path fill="#3B454F" d="M148.483,29.122c-1.593,1.593-3.666,2.358-5.738,2.358c-4.43,0-8.095-3.06-8.095-8.032
				c0-4.972,3.538-8.032,8.095-8.032c2.072,0,4.145,0.796,5.738,2.358l-1.02,0.988c-1.274-1.275-3.029-1.881-4.718-1.881
				c-3.569,0-6.566,2.327-6.566,6.566c0,4.24,2.997,6.566,6.566,6.566c1.689,0,3.411-0.669,4.686-1.945L148.483,29.122z"/>
			<path fill="#3B454F" d="M149.042,23.48c0-5.003,3.57-8.19,8-8.19c4.431,0,8,3.187,8,8.19c0,5.004-3.57,8.064-8,8.064
				C152.612,31.544,149.042,28.484,149.042,23.48z M163.513,23.48c0-4.079-2.901-6.725-6.471-6.725s-6.47,2.646-6.47,6.725
				c0,4.08,2.9,6.535,6.47,6.535S163.513,27.56,163.513,23.48z"/>
			<path fill="#3B454F" d="M168.42,15.576v2.805c1.212-2.167,3.411-3.06,5.61-3.091c4.208,0,7.107,2.582,7.107,6.948v9.083h-1.562
				v-9.052c0-3.569-2.199-5.482-5.609-5.45c-3.251,0.032-5.514,2.487-5.514,5.737v8.765h-1.562V15.576H168.42z"/>
		</g>
		<g>
			<path fill="#3B454F" d="M73.962,44.282h-4.034v4.196H67.24V34.22c2.241,0,4.481-0.021,6.722-0.021
				C80.928,34.199,80.948,44.282,73.962,44.282z M69.928,41.818h4.034c3.442,0,3.422-5.051,0-5.051h-4.034V41.818z"/>
			<path fill="#3B454F" d="M80.53,48.479V34.22h2.668v14.259H80.53z"/>
			<path fill="#3B454F" d="M94.898,34.22h2.953v0.122l-4.827,6.926l4.971,7.129v0.081H94.98l-3.646-5.357l-3.647,5.357h-3.015
				v-0.081l4.951-7.129l-4.808-6.926V34.22h2.955l3.564,5.317L94.898,34.22z"/>
			<path fill="#3B454F" d="M109.716,48.479H99.042c0-4.746,0-9.513,0-14.259h10.675v2.607h-8.006v3.28h7.72v2.505h-7.72v3.219h8.006
				V48.479z"/>
			<path fill="#3B454F" d="M113.981,34.22v11.774h7.333v2.484h-10.022V34.22H113.981z"/>
			<path fill="#3B454F" d="M131.508,37.663c-0.488-0.815-1.833-1.589-3.381-1.589c-1.996,0-2.953,0.835-2.953,1.895
				c0,1.243,1.466,1.589,3.177,1.792c2.974,0.367,5.745,1.141,5.745,4.542c0,3.178-2.811,4.543-5.989,4.543
				c-2.913,0-5.153-0.896-6.213-3.504l2.24-1.161c0.631,1.569,2.282,2.261,4.014,2.261c1.69,0,3.279-0.59,3.279-2.139
				c0-1.344-1.406-1.894-3.3-2.097c-2.913-0.347-5.602-1.122-5.602-4.32c0-2.933,2.892-4.134,5.52-4.155
				c2.221,0,4.522,0.631,5.602,2.832L131.508,37.663z"/>
		</g>
	</g>
	<g id="logo">
		<g>
			<g>
				<defs>
					<path id="SVGID_1_" d="M28.803,0C12.826,0-0.125,12.951-0.125,28.928s12.951,28.928,28.928,28.928S57.73,44.904,57.73,28.928
						S44.779,0,28.803,0z M34.162,38.913l-0.037,13.502L7.069,36.695l13.388-7.68L7.216,23.845l24.432-19.55l2.565,16.826
						l9.604-7.532l4.412,30.978L34.162,38.913z"/>
				</defs>
				<clipPath id="SVGID_2_">
					<use xlink:href="#SVGID_1_"  overflow="visible" opacity="0.6"/>
				</clipPath>
				<circle clip-path="url(#SVGID_2_)" fill="#FFFFFF" cx="28.803" cy="28.928" r="28.928"/>
				<circle opacity="0.6" clip-path="url(#SVGID_2_)" fill="#E24B70" cx="28.803" cy="28.928" r="28.928"/>
				<g opacity="0.4" clip-path="url(#SVGID_2_)">
					<path fill="#E24B70" d="M52.073,46.11c3.554-4.805,5.658-10.747,5.658-17.183c0-7.747-3.051-14.776-8.009-19.969L19.195,32.898
						L52.073,46.11z"/>
				</g>
				<g opacity="0.4" clip-path="url(#SVGID_2_)">
					<path fill="#E24B70" d="M0.879,21.37l35.485,13.857L31.008,0.092C30.279,0.037,29.545,0,28.803,0
						C15.442,0,4.203,9.06,0.879,21.37z"/>
				</g>
				<g opacity="0.4" clip-path="url(#SVGID_2_)">
					<path fill="#E24B70" d="M28.803,57.855c1.814,0,3.587-0.175,5.309-0.495l0.1-36.235L1.933,39.642
						C6.191,50.312,16.613,57.855,28.803,57.855z"/>
				</g>
				<path opacity="0.4" clip-path="url(#SVGID_2_)" fill="#E24B70" d="M30.98,0.09l3.216,21.044L49.722,8.959
					C44.923,3.934,38.337,0.638,30.98,0.09z"/>
				<path opacity="0.35" clip-path="url(#SVGID_2_)" fill="#E24B70" d="M42.362,3.374l6.594,46.297
					c5.409-5.257,8.774-12.605,8.774-20.743C57.73,17.852,51.503,8.234,42.362,3.374z"/>
				<path opacity="0.3" clip-path="url(#SVGID_2_)" fill="#E24B70" d="M28.803,0C12.826,0-0.125,12.951-0.125,28.928
					c0,0.262,0.013,0.521,0.02,0.781L35.884,0.876C33.618,0.306,31.246,0,28.803,0z"/>
				<path opacity="0.5" clip-path="url(#SVGID_2_)" fill="#E24B70" d="M0.121,32.642c1.824,14.221,13.965,25.214,28.682,25.214
					c3.883,0,7.584-0.771,10.967-2.158L0.121,32.642z"/>
				<path opacity="0.46" clip-path="url(#SVGID_2_)" fill="#E24B70" d="M34.111,57.361C41.444,56,47.806,51.88,52.073,46.11
					l-17.911-7.197L34.111,57.361z"/>
				<path clip-path="url(#SVGID_2_)" fill="#E24B70" d="M1.937,39.651l5.156-2.954l-6.972-4.056
					C0.434,35.087,1.052,37.436,1.937,39.651z"/>
				<path opacity="0.01" clip-path="url(#SVGID_2_)" fill="#FFFFFF" d="M-0.105,29.709l7.321-5.85L0.88,21.367
					c-0.651,2.411-1.005,4.944-1.005,7.561C-0.125,29.189-0.112,29.448-0.105,29.709z"/>
				<path opacity="0.3" clip-path="url(#SVGID_2_)" fill="#FFFFFF" d="M43.817,13.593l5.905-4.633
					c-2.131-2.232-4.612-4.125-7.36-5.586L43.817,13.593z"/>
				<path opacity="0.6" clip-path="url(#SVGID_2_)" fill="#E24B70" d="M35.896,0.879c-1.59-0.4-3.233-0.664-4.915-0.789l0.646,4.223
					L35.896,0.879z"/>
				<path opacity="0.3" clip-path="url(#SVGID_2_)" fill="#FFFFFF" d="M34.138,52.406l-0.025,4.954
					c1.966-0.365,3.862-0.926,5.667-1.667L34.138,52.406z"/>
				<path clip-path="url(#SVGID_2_)" fill="#E24B70" d="M48.229,44.566l0.732,5.099c0,0,0-0.001,0.001-0.001
					c0.549-0.535,1.077-1.092,1.583-1.667c0.031-0.035,0.062-0.071,0.093-0.107c0.5-0.574,0.98-1.166,1.434-1.779L48.229,44.566z"/>
			</g>
			<polygon opacity="0.94" fill="#E24B70" points="36.364,35.228 34.213,21.121 34.197,21.134 20.457,29.016 22.92,29.977 
				19.195,32.898 34.162,38.913 34.174,34.373 			"/>
		</g>
	</g>
</g>
<g id="invert" display="none">
	<g id="text_1_" display="inline">
		<g>
			<path fill="#FFFFFF" d="M68.711,9.01v10.008c1.228-2.549,3.683-3.697,6.29-3.697c4.234,0,7.608,2.933,7.608,8.128
				c0,5.228-3.344,8.128-7.577,8.128c-2.578,0-5.062-1.339-6.321-3.729v3.474H67.24V9.01H68.711z M68.743,23.417
				c0,3.92,2.639,6.629,6.197,6.629c3.405,0,6.198-2.231,6.198-6.599c0-4.431-2.793-6.63-6.198-6.63
				C71.443,16.818,68.743,19.496,68.743,23.417z"/>
			<path fill="#FFFFFF" d="M83.948,23.48c0-5.003,3.571-8.19,8-8.19c4.432,0,8.001,3.187,8.001,8.19
				c0,5.004-3.569,8.064-8.001,8.064C87.519,31.544,83.948,28.484,83.948,23.48z M98.419,23.48c0-4.079-2.901-6.725-6.471-6.725
				c-3.569,0-6.469,2.646-6.469,6.725c0,4.08,2.9,6.535,6.469,6.535C95.519,30.015,98.419,27.56,98.419,23.48z"/>
			<path fill="#FFFFFF" d="M101.303,23.48c0-5.003,3.57-8.19,8-8.19c4.432,0,8,3.187,8,8.19c0,5.004-3.569,8.064-8,8.064
				C104.874,31.544,101.303,28.484,101.303,23.48z M115.774,23.48c0-4.079-2.9-6.725-6.471-6.725c-3.57,0-6.47,2.646-6.47,6.725
				c0,4.08,2.9,6.535,6.47,6.535C112.874,30.015,115.774,27.56,115.774,23.48z"/>
			<path fill="#FFFFFF" d="M120.436,15.576v2.805c1.211-2.167,3.41-3.06,5.61-3.091c4.207,0,7.107,2.582,7.107,6.948v9.083h-1.562
				v-9.052c0-3.569-2.199-5.482-5.609-5.45c-3.251,0.032-5.515,2.487-5.515,5.737v8.765h-1.562V15.576H120.436z"/>
			<path fill="#FFFFFF" d="M148.483,29.122c-1.593,1.593-3.666,2.358-5.738,2.358c-4.43,0-8.095-3.06-8.095-8.032
				c0-4.972,3.538-8.032,8.095-8.032c2.072,0,4.145,0.796,5.738,2.358l-1.02,0.988c-1.274-1.275-3.029-1.881-4.718-1.881
				c-3.569,0-6.566,2.327-6.566,6.566c0,4.24,2.997,6.566,6.566,6.566c1.689,0,3.411-0.669,4.686-1.945L148.483,29.122z"/>
			<path fill="#FFFFFF" d="M149.042,23.48c0-5.003,3.57-8.19,8-8.19c4.431,0,8,3.187,8,8.19c0,5.004-3.57,8.064-8,8.064
				C152.612,31.544,149.042,28.484,149.042,23.48z M163.513,23.48c0-4.079-2.901-6.725-6.471-6.725s-6.47,2.646-6.47,6.725
				c0,4.08,2.9,6.535,6.47,6.535S163.513,27.56,163.513,23.48z"/>
			<path fill="#FFFFFF" d="M168.42,15.576v2.805c1.212-2.167,3.411-3.06,5.61-3.091c4.208,0,7.107,2.582,7.107,6.948v9.083h-1.562
				v-9.052c0-3.569-2.199-5.482-5.609-5.45c-3.251,0.032-5.514,2.487-5.514,5.737v8.765h-1.562V15.576H168.42z"/>
		</g>
		<g>
			<path fill="#FFFFFF" d="M73.962,44.282h-4.034v4.196H67.24V34.22c2.241,0,4.481-0.021,6.722-0.021
				C80.928,34.199,80.948,44.282,73.962,44.282z M69.928,41.818h4.034c3.442,0,3.422-5.051,0-5.051h-4.034V41.818z"/>
			<path fill="#FFFFFF" d="M80.53,48.479V34.22h2.668v14.259H80.53z"/>
			<path fill="#FFFFFF" d="M94.898,34.22h2.953v0.122l-4.827,6.926l4.971,7.129v0.081H94.98l-3.646-5.357l-3.647,5.357h-3.015
				v-0.081l4.951-7.129l-4.808-6.926V34.22h2.955l3.564,5.317L94.898,34.22z"/>
			<path fill="#FFFFFF" d="M109.716,48.479H99.042c0-4.746,0-9.513,0-14.259h10.675v2.607h-8.006v3.28h7.72v2.505h-7.72v3.219h8.006
				V48.479z"/>
			<path fill="#FFFFFF" d="M113.981,34.22v11.774h7.333v2.484h-10.022V34.22H113.981z"/>
			<path fill="#FFFFFF" d="M131.508,37.663c-0.488-0.815-1.833-1.589-3.381-1.589c-1.996,0-2.953,0.835-2.953,1.895
				c0,1.243,1.466,1.589,3.177,1.792c2.974,0.367,5.745,1.141,5.745,4.542c0,3.178-2.811,4.543-5.989,4.543
				c-2.913,0-5.153-0.896-6.213-3.504l2.24-1.161c0.631,1.569,2.282,2.261,4.014,2.261c1.69,0,3.279-0.59,3.279-2.139
				c0-1.344-1.406-1.894-3.3-2.097c-2.913-0.347-5.602-1.122-5.602-4.32c0-2.933,2.892-4.134,5.52-4.155
				c2.221,0,4.522,0.631,5.602,2.832L131.508,37.663z"/>
		</g>
	</g>
	<g id="logo_copy" display="inline">
		<g>
			<defs>
				<path id="SVGID_3_" d="M28.803,0C12.826,0-0.125,12.951-0.125,28.928s12.951,28.928,28.928,28.928S57.73,44.904,57.73,28.928
					S44.779,0,28.803,0z M34.162,38.913l-0.037,13.502L7.069,36.695l13.388-7.68L7.216,23.845l24.432-19.55l2.565,16.826
					l9.604-7.532l4.412,30.978L34.162,38.913z"/>
			</defs>
			<use xlink:href="#SVGID_3_"  overflow="visible" opacity="0.6" fill="#FFFFFF"/>
			<clipPath id="SVGID_4_">
				<use xlink:href="#SVGID_3_"  overflow="visible" opacity="0.6"/>
			</clipPath>
			<circle clip-path="url(#SVGID_4_)" fill="#FFFFFF" cx="28.803" cy="28.928" r="28.928"/>
			<circle opacity="0.6" clip-path="url(#SVGID_4_)" fill="#FFFFFF" cx="28.803" cy="28.928" r="28.928"/>
			<g opacity="0.4" clip-path="url(#SVGID_4_)">
				<path fill="#FFFFFF" d="M52.073,46.11c3.554-4.805,5.658-10.747,5.658-17.183c0-7.747-3.051-14.776-8.009-19.969L19.195,32.898
					L52.073,46.11z"/>
			</g>
			<g opacity="0.4" clip-path="url(#SVGID_4_)">
				<path fill="#FFFFFF" d="M0.879,21.37l35.485,13.857L31.008,0.092C30.279,0.037,29.545,0,28.803,0
					C15.442,0,4.203,9.06,0.879,21.37z"/>
			</g>
			<g opacity="0.4" clip-path="url(#SVGID_4_)">
				<path fill="#FFFFFF" d="M28.803,57.855c1.814,0,3.587-0.175,5.309-0.495l0.1-36.235L1.933,39.642
					C6.191,50.312,16.613,57.855,28.803,57.855z"/>
			</g>
			<path opacity="0.4" clip-path="url(#SVGID_4_)" fill="#FFFFFF" d="M30.98,0.09l3.216,21.044L49.722,8.959
				C44.923,3.934,38.337,0.638,30.98,0.09z"/>
			<path opacity="0.35" clip-path="url(#SVGID_4_)" fill="#FFFFFF" d="M42.362,3.374l6.594,46.297
				c5.409-5.257,8.774-12.605,8.774-20.743C57.73,17.852,51.503,8.234,42.362,3.374z"/>
			<path opacity="0.3" clip-path="url(#SVGID_4_)" fill="#FFFFFF" d="M28.803,0C12.826,0-0.125,12.951-0.125,28.928
				c0,0.262,0.013,0.521,0.02,0.781L35.884,0.876C33.618,0.306,31.246,0,28.803,0z"/>
			<path opacity="0.5" clip-path="url(#SVGID_4_)" fill="#FFFFFF" d="M0.121,32.642c1.824,14.221,13.965,25.214,28.682,25.214
				c3.883,0,7.584-0.771,10.967-2.158L0.121,32.642z"/>
			<path opacity="0.46" clip-path="url(#SVGID_4_)" fill="#FFFFFF" d="M34.111,57.361C41.444,56,47.806,51.88,52.073,46.11
				l-17.911-7.197L34.111,57.361z"/>
			<path clip-path="url(#SVGID_4_)" fill="#FFFFFF" d="M1.937,39.651l5.156-2.954l-6.972-4.056
				C0.434,35.087,1.052,37.436,1.937,39.651z"/>
			<path opacity="0.01" clip-path="url(#SVGID_4_)" fill="#FFFFFF" d="M-0.105,29.709l7.321-5.85L0.88,21.367
				c-0.651,2.411-1.005,4.944-1.005,7.561C-0.125,29.189-0.112,29.448-0.105,29.709z"/>
			<path opacity="0.3" clip-path="url(#SVGID_4_)" fill="#FFFFFF" d="M43.817,13.593l5.905-4.633
				c-2.131-2.232-4.612-4.125-7.36-5.586L43.817,13.593z"/>
			<path opacity="0.6" clip-path="url(#SVGID_4_)" fill="#FFFFFF" d="M35.896,0.879c-1.59-0.4-3.233-0.664-4.915-0.789l0.646,4.223
				L35.896,0.879z"/>
			<path opacity="0.3" clip-path="url(#SVGID_4_)" fill="#FFFFFF" d="M34.138,52.406l-0.025,4.954
				c1.966-0.365,3.862-0.926,5.667-1.667L34.138,52.406z"/>
			<path clip-path="url(#SVGID_4_)" fill="#FFFFFF" d="M48.229,44.566l0.732,5.099c0,0,0-0.001,0.001-0.001
				c0.549-0.535,1.077-1.092,1.583-1.667c0.031-0.035,0.062-0.071,0.093-0.107c0.5-0.574,0.98-1.166,1.434-1.779L48.229,44.566z"/>
		</g>
		<polygon opacity="0.94" fill="#FFFFFF" points="36.364,35.228 34.213,21.121 34.197,21.134 20.457,29.016 22.92,29.977 
			19.195,32.898 34.162,38.913 34.174,34.373 		"/>
	</g>
</g>
</svg>
