<svg xmlns="http://www.w3.org/2000/svg" xmlns:xlink="http://www.w3.org/1999/xlink" width="181.138" height="57.855"><g><defs><path id="a" d="M28.928 0c-15.977 0-28.928 12.951-28.928 28.928s12.951 28.928 28.928 28.928 28.928-12.951 28.928-28.928-12.952-28.928-28.928-28.928zm5.359 38.913l-.037 13.502-27.056-15.72 13.388-7.68-13.241-5.17 24.432-19.55 2.565 16.826 9.604-7.532 4.412 30.978-14.067-5.654z"/></defs><clipPath id="b"><use xlink:href="#a" overflow="visible" opacity=".6"/></clipPath><circle clip-path="url(#b)" fill="#fff" cx="28.928" cy="28.928" r="28.928"/><circle opacity=".6" clip-path="url(#b)" fill="#2BABE2" cx="28.928" cy="28.928" r="28.928"/><polygon fill="#2BABE2" points="75.026,55.284 19.32,32.898 66.56,-4.148" opacity=".4" clip-path="url(#b)"/><polygon fill="#2BABE2" points="36.489,35.228 -15.349,14.984 28.103,-19.784" opacity=".4" clip-path="url(#b)"/><polygon fill="#2BABE2" points="34.179,78.288 -15.249,49.57 34.336,21.125" opacity=".4" clip-path="url(#b)"/><polygon fill="#2BABE2" points="34.338,21.121 34.322,21.134 20.582,29.016 23.045,29.977 19.32,32.898 34.287,38.913 34.299,34.373 36.489,35.228" opacity=".4" clip-path="url(#b)"/><polygon fill="#2BABE2" points="34.299,20.926 34.298,20.921 34.273,20.939" opacity=".4" clip-path="url(#b)"/><polygon fill="#2BABE2" points="34.301,20.926 34.299,20.926 34.3,20.935" opacity=".4" clip-path="url(#b)"/><polygon fill="#2BABE2" points="34.015,21.151 34.014,21.151 34.014,21.16" opacity=".4" clip-path="url(#b)"/><polyline opacity=".4" clip-path="url(#b)" fill="#2BABE2" points="34.322,21.134 66.013,-3.719 28.451,-17.281 34.322,21.134"/><line opacity=".4" clip-path="url(#b)" fill="#2BABE2" x1="43.942" y1="13.589" x2="48.354" y2="44.566"/><polygon opacity=".35" clip-path="url(#b)" fill="#2BABE2" points="52.923,76.648 39.373,-18.492 89.888,14.406"/><polygon opacity=".3" clip-path="url(#b)" fill="#2BABE2" points="-20.878,46.45 54.122,-13.635 -5.223,-24.228"/><polygon opacity=".5" clip-path="url(#b)" fill="#2BABE2" points="-22.903,19.181 60.172,67.489 3.052,86.759"/><polyline opacity=".46" clip-path="url(#b)" fill="#2BABE2" points="34.287,38.913 34.179,78.288 58.805,55.284 53.043,46.45 34.287,38.913"/><polygon clip-path="url(#b)" fill="#2BABE2" points="7.217,36.697 -0.159,32.406 -0.784,41.281"/><polygon opacity=".01" clip-path="url(#b)" fill="#fff" points="7.341,23.859 -1.596,20.344 -0.556,30.169"/><polygon opacity=".3" clip-path="url(#b)" fill="#fff" points="43.942,13.593 52.942,6.531 42.281,1.926"/><polygon opacity=".6" clip-path="url(#b)" fill="#2BABE2" points="31.751,4.313 39.821,-2.178 30.627,-3.039"/><polygon opacity=".3" clip-path="url(#b)" fill="#fff" points="34.263,52.406 40.779,56.203 34.236,57.735"/><polygon opacity=".7" clip-path="url(#b)" fill="#2BABE2" points="48.354,44.566 49.31,51.219 53.043,46.45"/></g><g><polygon opacity=".94" fill="#2BABE2" points="36.489,35.228 34.338,21.121 34.322,21.134 20.582,29.016 23.045,29.977 19.32,32.898 34.287,38.913 34.299,34.373"/><g fill="#3B454F"><path d="M68.711 9.01v10.008c1.228-2.549 3.683-3.697 6.29-3.697 4.234 0 7.608 2.933 7.608 8.128 0 5.228-3.344 8.128-7.577 8.128-2.578 0-5.062-1.339-6.321-3.729v3.474h-1.471v-22.312h1.471zm.032 14.407c0 3.92 2.639 6.629 6.197 6.629 3.405 0 6.198-2.231 6.198-6.599 0-4.431-2.793-6.63-6.198-6.63-3.497.001-6.197 2.679-6.197 6.6zM83.948 23.48c0-5.003 3.571-8.19 8-8.19 4.432 0 8.001 3.187 8.001 8.19 0 5.004-3.569 8.064-8.001 8.064-4.429 0-8-3.06-8-8.064zm14.471 0c0-4.079-2.901-6.725-6.471-6.725-3.569 0-6.469 2.646-6.469 6.725 0 4.08 2.9 6.535 6.469 6.535 3.571 0 6.471-2.455 6.471-6.535zM101.303 23.48c0-5.003 3.57-8.19 8-8.19 4.432 0 8 3.187 8 8.19 0 5.004-3.569 8.064-8 8.064-4.429 0-8-3.06-8-8.064zm14.471 0c0-4.079-2.9-6.725-6.471-6.725-3.57 0-6.47 2.646-6.47 6.725 0 4.08 2.9 6.535 6.47 6.535 3.571 0 6.471-2.455 6.471-6.535zM120.436 15.576v2.805c1.211-2.167 3.41-3.06 5.61-3.091 4.207 0 7.107 2.582 7.107 6.948v9.083h-1.562v-9.052c0-3.569-2.199-5.482-5.609-5.45-3.251.032-5.515 2.487-5.515 5.737v8.765h-1.562v-15.745h1.531zM148.483 29.122c-1.593 1.593-3.666 2.358-5.738 2.358-4.43 0-8.095-3.06-8.095-8.032 0-4.972 3.538-8.032 8.095-8.032 2.072 0 4.145.796 5.738 2.358l-1.02.988c-1.274-1.275-3.029-1.881-4.718-1.881-3.569 0-6.566 2.327-6.566 6.566 0 4.24 2.997 6.566 6.566 6.566 1.689 0 3.411-.669 4.686-1.945l1.052 1.054zM149.042 23.48c0-5.003 3.57-8.19 8-8.19 4.431 0 8 3.187 8 8.19 0 5.004-3.57 8.064-8 8.064s-8-3.06-8-8.064zm14.471 0c0-4.079-2.901-6.725-6.471-6.725s-6.47 2.646-6.47 6.725c0 4.08 2.9 6.535 6.47 6.535s6.471-2.455 6.471-6.535zM168.42 15.576v2.805c1.212-2.167 3.411-3.06 5.61-3.091 4.208 0 7.107 2.582 7.107 6.948v9.083h-1.562v-9.052c0-3.569-2.199-5.482-5.609-5.45-3.251.032-5.514 2.487-5.514 5.737v8.765h-1.562v-15.745h1.53z"/></g><g fill="#3B454F"><path d="M79.908 48.524h-3.208l-4.168-4.783h-2.596v4.783h-2.696v-14.323l6.804.021c3.372.02 5.149 2.268 5.149 4.74 0 1.962-.899 3.943-3.616 4.496l4.332 4.882v.184zm-9.972-11.789v4.577h4.107c1.716 0 2.453-1.145 2.453-2.289s-.756-2.288-2.453-2.288h-4.107zM94.563 41.453c-.041 3.699-2.309 7.397-7.334 7.397-5.026 0-7.354-3.616-7.354-7.376 0-3.758 2.409-7.539 7.354-7.539 4.926 0 7.376 3.781 7.334 7.518zm-12.031.062c.058 2.351 1.327 4.864 4.697 4.864 3.373 0 4.638-2.534 4.68-4.884.041-2.409-1.307-5.106-4.68-5.106-3.37-.001-4.759 2.716-4.697 5.126zM108.65 46.725c-1.472 1.451-3.373 2.125-5.434 2.125-5.311 0-7.562-3.657-7.582-7.376-.017-3.738 2.412-7.539 7.582-7.539 1.941 0 3.78.736 5.249 2.187l-1.797 1.736c-.94-.919-2.206-1.349-3.451-1.349-3.455 0-4.944 2.575-4.923 4.964.021 2.37 1.389 4.842 4.923 4.842 1.246 0 2.655-.511 3.596-1.449l1.837 1.859zM121.162 34.304l-6.354 6.844 6.885 7.212v.165h-3.331l-5.987-6.335v6.335h-2.696v-14.303h2.696v6.048l5.438-6.048h3.348v.082zM133.225 48.524h-10.704v-14.303h10.704v2.616h-8.028v3.288h7.743v2.513h-7.743v3.229h8.028v2.657zM138.837 36.673h-4.535v-2.451h11.771v2.451h-4.539v11.852h-2.696v-11.852zM155.524 37.675c-.49-.817-1.838-1.594-3.39-1.594-2.003 0-2.964.837-2.964 1.901 0 1.246 1.472 1.593 3.188 1.798 2.984.367 5.76 1.144 5.76 4.555 0 3.188-2.817 4.557-6.004 4.557-2.922 0-5.17-.899-6.233-3.515l2.247-1.165c.635 1.573 2.289 2.268 4.024 2.268 1.699 0 3.291-.592 3.291-2.145 0-1.348-1.411-1.901-3.308-2.104-2.923-.349-5.619-1.124-5.619-4.331 0-2.942 2.902-4.148 5.537-4.168 2.226 0 4.536.635 5.616 2.841l-2.145 1.102z"/></g></g></svg>