<svg xmlns="http://www.w3.org/2000/svg" xmlns:xlink="http://www.w3.org/1999/xlink" width="181.138" height="57.855"><g><g fill="#3B454F"><path d="M68.711 9.01v10.008c1.228-2.549 3.683-3.697 6.29-3.697 4.234 0 7.608 2.933 7.608 8.128 0 5.228-3.344 8.128-7.577 8.128-2.578 0-5.062-1.339-6.321-3.729v3.474h-1.471v-22.312h1.471zm.032 14.407c0 3.92 2.639 6.629 6.197 6.629 3.405 0 6.198-2.231 6.198-6.599 0-4.431-2.793-6.63-6.198-6.63-3.497.001-6.197 2.679-6.197 6.6zM83.948 23.48c0-5.003 3.571-8.19 8-8.19 4.432 0 8.001 3.187 8.001 8.19 0 5.004-3.569 8.064-8.001 8.064-4.429 0-8-3.06-8-8.064zm14.471 0c0-4.079-2.901-6.725-6.471-6.725-3.569 0-6.469 2.646-6.469 6.725 0 4.08 2.9 6.535 6.469 6.535 3.571 0 6.471-2.455 6.471-6.535zM101.303 23.48c0-5.003 3.57-8.19 8-8.19 4.432 0 8 3.187 8 8.19 0 5.004-3.569 8.064-8 8.064-4.429 0-8-3.06-8-8.064zm14.471 0c0-4.079-2.9-6.725-6.471-6.725-3.57 0-6.47 2.646-6.47 6.725 0 4.08 2.9 6.535 6.47 6.535 3.571 0 6.471-2.455 6.471-6.535zM120.436 15.576v2.805c1.211-2.167 3.41-3.06 5.61-3.091 4.207 0 7.107 2.582 7.107 6.948v9.083h-1.562v-9.052c0-3.569-2.199-5.482-5.609-5.45-3.251.032-5.515 2.487-5.515 5.737v8.765h-1.562v-15.745h1.531zM148.483 29.122c-1.593 1.593-3.666 2.358-5.738 2.358-4.43 0-8.095-3.06-8.095-8.032 0-4.972 3.538-8.032 8.095-8.032 2.072 0 4.145.796 5.738 2.358l-1.02.988c-1.274-1.275-3.029-1.881-4.718-1.881-3.569 0-6.566 2.327-6.566 6.566 0 4.24 2.997 6.566 6.566 6.566 1.689 0 3.411-.669 4.686-1.945l1.052 1.054zM149.042 23.48c0-5.003 3.57-8.19 8-8.19 4.431 0 8 3.187 8 8.19 0 5.004-3.57 8.064-8 8.064s-8-3.06-8-8.064zm14.471 0c0-4.079-2.901-6.725-6.471-6.725s-6.47 2.646-6.47 6.725c0 4.08 2.9 6.535 6.47 6.535s6.471-2.455 6.471-6.535zM168.42 15.576v2.805c1.212-2.167 3.411-3.06 5.61-3.091 4.208 0 7.107 2.582 7.107 6.948v9.083h-1.562v-9.052c0-3.569-2.199-5.482-5.609-5.45-3.251.032-5.514 2.487-5.514 5.737v8.765h-1.562v-15.745h1.53zM73.962 44.282h-4.034v4.196h-2.688v-14.258l6.722-.021c6.966 0 6.986 10.083 0 10.083zm-4.034-2.464h4.034c3.442 0 3.422-5.051 0-5.051h-4.034v5.051zM80.53 48.479v-14.259h2.668v14.259h-2.668zM94.898 34.22h2.953v.122l-4.827 6.926 4.971 7.129v.081h-3.015l-3.646-5.357-3.647 5.357h-3.015v-.081l4.951-7.129-4.808-6.926v-.122h2.955l3.564 5.317 3.564-5.317zM109.716 48.479h-10.674v-14.259h10.675v2.607h-8.006v3.28h7.72v2.505h-7.72v3.219h8.006v2.648zM113.981 34.22v11.774h7.333v2.484h-10.022v-14.258h2.689zM131.508 37.663c-.488-.815-1.833-1.589-3.381-1.589-1.996 0-2.953.835-2.953 1.895 0 1.243 1.466 1.589 3.177 1.792 2.974.367 5.745 1.141 5.745 4.542 0 3.178-2.811 4.543-5.989 4.543-2.913 0-5.153-.896-6.213-3.504l2.24-1.161c.631 1.569 2.282 2.261 4.014 2.261 1.69 0 3.279-.59 3.279-2.139 0-1.344-1.406-1.894-3.3-2.097-2.913-.347-5.602-1.122-5.602-4.32 0-2.933 2.892-4.134 5.52-4.155 2.221 0 4.522.631 5.602 2.832l-2.139 1.1z"/></g><g><defs><path id="a" d="M28.803 0c-15.977 0-28.928 12.951-28.928 28.928s12.951 28.928 28.928 28.928 28.927-12.952 28.927-28.928-12.951-28.928-28.927-28.928zm5.359 38.913l-.037 13.502-27.056-15.72 13.388-7.68-13.241-5.17 24.432-19.55 2.565 16.826 9.604-7.532 4.412 30.978-14.067-5.654z"/></defs><clipPath id="b"><use xlink:href="#a" overflow="visible" opacity=".6"/></clipPath><circle clip-path="url(#b)" fill="#fff" cx="28.803" cy="28.928" r="28.928"/><circle opacity=".6" clip-path="url(#b)" fill="#E24B70" cx="28.803" cy="28.928" r="28.928"/><path fill="#E24B70" d="M52.073 46.11c3.554-4.805 5.658-10.747 5.658-17.183 0-7.747-3.051-14.776-8.009-19.969l-30.527 23.94 32.878 13.212z" opacity=".4" clip-path="url(#b)"/><path fill="#E24B70" d="M.879 21.37l35.485 13.857-5.356-35.135c-.729-.055-1.463-.092-2.205-.092-13.361 0-24.6 9.06-27.924 21.37z" opacity=".4" clip-path="url(#b)"/><path fill="#E24B70" d="M28.803 57.855c1.814 0 3.587-.175 5.309-.495l.1-36.235-32.279 18.517c4.258 10.67 14.68 18.213 26.87 18.213z" opacity=".4" clip-path="url(#b)"/><path opacity=".4" clip-path="url(#b)" fill="#E24B70" d="M30.98.09l3.216 21.044 15.526-12.175c-4.799-5.025-11.385-8.321-18.742-8.869z"/><path opacity=".35" clip-path="url(#b)" fill="#E24B70" d="M42.362 3.374l6.594 46.297c5.409-5.257 8.774-12.605 8.774-20.743 0-11.076-6.227-20.694-15.368-25.554z"/><path opacity=".3" clip-path="url(#b)" fill="#E24B70" d="M28.803 0c-15.977 0-28.928 12.951-28.928 28.928l.02.781 35.989-28.833c-2.266-.57-4.638-.876-7.081-.876z"/><path opacity=".5" clip-path="url(#b)" fill="#E24B70" d="M.121 32.642c1.824 14.221 13.965 25.214 28.682 25.214 3.883 0 7.584-.771 10.967-2.158l-39.649-23.056z"/><path opacity=".46" clip-path="url(#b)" fill="#E24B70" d="M34.111 57.361c7.333-1.361 13.695-5.481 17.962-11.251l-17.911-7.197-.051 18.448z"/><path clip-path="url(#b)" fill="#E24B70" d="M1.937 39.651l5.156-2.954-6.972-4.056c.313 2.446.931 4.795 1.816 7.01z"/><path opacity=".01" clip-path="url(#b)" fill="#fff" d="M-.105 29.709l7.321-5.85-6.336-2.492c-.651 2.411-1.005 4.944-1.005 7.561l.02.781z"/><path opacity=".3" clip-path="url(#b)" fill="#fff" d="M43.817 13.593l5.905-4.633c-2.131-2.232-4.612-4.125-7.36-5.586l1.455 10.219z"/><path opacity=".6" clip-path="url(#b)" fill="#E24B70" d="M35.896.879c-1.59-.4-3.233-.664-4.915-.789l.646 4.223 4.269-3.434z"/><path opacity=".3" clip-path="url(#b)" fill="#fff" d="M34.138 52.406l-.025 4.954c1.966-.365 3.862-.926 5.667-1.667l-5.642-3.287z"/><path clip-path="url(#b)" fill="#E24B70" d="M48.229 44.566l.732 5.099.001-.001c.549-.535 1.077-1.092 1.583-1.667l.093-.107c.5-.574.98-1.166 1.434-1.779l-3.843-1.545z"/><polygon opacity=".94" fill="#E24B70" points="36.364,35.228 34.213,21.121 34.197,21.134 20.457,29.016 22.92,29.977 19.195,32.898 34.162,38.913 34.174,34.373"/></g></g></svg>