<?xml version="1.0" encoding="utf-8"?>
<!-- Generator: Adobe Illustrator 16.2.1, SVG Export Plug-In . SVG Version: 6.00 Build 0)  -->
<!DOCTYPE svg PUBLIC "-//W3C//DTD SVG 1.1//EN" "http://www.w3.org/Graphics/SVG/1.1/DTD/svg11.dtd">
<svg version="1.1" xmlns="http://www.w3.org/2000/svg" xmlns:xlink="http://www.w3.org/1999/xlink" x="0px" y="0px"
	 width="225.315px" height="57.855px" viewBox="0 0 225.315 57.855" enable-background="new 0 0 225.315 57.855"
	 xml:space="preserve">
<g id="raw" display="none">
	<circle display="inline" opacity="0.6" fill="#58595B" cx="-579.399" cy="122.894" r="198"/>
	<g display="inline" opacity="0.8">
		<polygon fill="#ED1C24" points="-446.43,229.935 -645.161,150.07 -476.628,17.906 		"/>
	</g>
	<g display="inline" opacity="0.8">
		<polygon fill="#ED1C24" points="-527.645,166.015 -727.15,88.104 -559.922,-45.708 		"/>
	</g>
	<g display="inline" opacity="0.8">
		<polygon fill="#ED1C24" points="-542.97,283.657 -728.157,176.059 -542.379,69.489 		"/>
	</g>
	<g display="inline" opacity="0.8">
		<polygon fill="#FFFFFF" points="-149.364,81.331 -149.478,81.418 -243.525,135.368 -226.667,141.952 -252.161,161.944 
			-149.715,203.114 -149.63,172.037 -134.646,177.89 		"/>
	</g>
	<g display="inline" opacity="0.8">
		<polygon fill="#ED1C24" points="-542.636,68.126 -542.639,68.094 -542.812,68.216 		"/>
	</g>
	<g display="inline" opacity="0.8">
		<polygon fill="#ED1C24" points="-542.626,68.122 -542.636,68.126 -542.63,68.186 		"/>
	</g>
	<g display="inline" opacity="0.8">
		<polygon fill="#ED1C24" points="-544.584,69.667 -544.587,69.668 -544.584,69.729 		"/>
	</g>
</g>
<g id="Layer_1">
	<defs>
		<path id="SVGID_1_" d="M28.928,0C12.951,0,0,12.951,0,28.928s12.951,28.928,28.928,28.928s28.928-12.951,28.928-28.928
			S44.904,0,28.928,0z M34.287,38.913L34.25,52.415L7.194,36.695l13.388-7.68L7.341,23.845l24.432-19.55l2.565,16.826l9.604-7.532
			l4.412,30.978L34.287,38.913z"/>
	</defs>
	<clipPath id="SVGID_2_">
		<use xlink:href="#SVGID_1_"  overflow="visible" opacity="0.6"/>
	</clipPath>
	<circle clip-path="url(#SVGID_2_)" fill="#FFFFFF" cx="28.928" cy="28.928" r="28.928"/>
	<circle opacity="0.6" clip-path="url(#SVGID_2_)" fill="#3B454F" cx="28.928" cy="28.928" r="28.928"/>
	<g opacity="0.4" clip-path="url(#SVGID_2_)">
		<polygon fill="#3B454F" points="75.026,55.284 19.32,32.898 66.56,-4.148 		"/>
	</g>
	<g opacity="0.4" clip-path="url(#SVGID_2_)">
		<polygon fill="#3B454F" points="36.489,35.228 -15.349,14.984 28.103,-19.784 		"/>
	</g>
	<g opacity="0.4" clip-path="url(#SVGID_2_)">
		<polygon fill="#3B454F" points="34.179,78.288 -15.249,49.57 34.336,21.125 		"/>
	</g>
	<g opacity="0.4" clip-path="url(#SVGID_2_)">
		<polygon fill="#3B454F" points="34.338,21.121 34.322,21.134 20.582,29.016 23.045,29.977 19.32,32.898 34.287,38.913 
			34.299,34.373 36.489,35.228 		"/>
	</g>
	<g opacity="0.4" clip-path="url(#SVGID_2_)">
		<polygon fill="#3B454F" points="34.299,20.926 34.298,20.921 34.273,20.939 		"/>
	</g>
	<g opacity="0.4" clip-path="url(#SVGID_2_)">
		<polygon fill="#3B454F" points="34.301,20.926 34.299,20.926 34.3,20.935 		"/>
	</g>
	<g opacity="0.4" clip-path="url(#SVGID_2_)">
		<polygon fill="#3B454F" points="34.015,21.151 34.014,21.151 34.014,21.16 		"/>
	</g>
	<polyline opacity="0.4" clip-path="url(#SVGID_2_)" fill="#3B454F" points="34.322,21.134 66.013,-3.719 28.451,-17.281 
		34.322,21.134 	"/>
	<line opacity="0.4" clip-path="url(#SVGID_2_)" fill="#3B454F" x1="43.942" y1="13.589" x2="48.354" y2="44.566"/>
	<polygon opacity="0.35" clip-path="url(#SVGID_2_)" fill="#3B454F" points="52.923,76.648 39.373,-18.492 89.888,14.406 	"/>
	<polygon opacity="0.3" clip-path="url(#SVGID_2_)" fill="#3B454F" points="-20.878,46.45 54.122,-13.635 -5.223,-24.228 	"/>
	<polygon opacity="0.5" clip-path="url(#SVGID_2_)" fill="#3B454F" points="-22.903,19.181 60.172,67.489 3.052,86.759 	"/>
	<polyline opacity="0.46" clip-path="url(#SVGID_2_)" fill="#3B454F" points="34.287,38.913 34.179,78.288 58.805,55.284 
		53.043,46.45 34.287,38.913 	"/>
	<polygon clip-path="url(#SVGID_2_)" fill="#3B454F" points="7.217,36.697 -0.159,32.406 -0.784,41.281 	"/>
	<polygon opacity="0.01" clip-path="url(#SVGID_2_)" fill="#FFFFFF" points="7.341,23.859 -1.596,20.344 -0.556,30.169 	"/>
	<polygon opacity="0.3" clip-path="url(#SVGID_2_)" fill="#FFFFFF" points="43.942,13.593 52.942,6.531 42.281,1.926 	"/>
	<polygon opacity="0.6" clip-path="url(#SVGID_2_)" fill="#3B454F" points="31.751,4.313 39.821,-2.178 30.627,-3.039 	"/>
	<polygon opacity="0.3" clip-path="url(#SVGID_2_)" fill="#FFFFFF" points="34.263,52.406 40.779,56.203 34.236,57.735 	"/>
	<polygon opacity="0.7" clip-path="url(#SVGID_2_)" fill="#3B454F" points="48.354,44.566 49.31,51.219 53.043,46.45 	"/>
</g>
<g id="Layer_2">
	<polygon opacity="0.94" fill="#3B454F" points="36.489,35.228 34.338,21.121 34.322,21.134 20.582,29.016 23.045,29.977 
		19.32,32.898 34.287,38.913 34.299,34.373 	"/>
	<g>
		<path fill="#3B454F" d="M72.48,13.589v13.606c1.668-3.467,5.005-5.027,8.55-5.027c5.755,0,10.343,3.986,10.343,11.049
			c0,7.107-4.546,11.049-10.301,11.049c-3.503,0-6.881-1.819-8.592-5.069v4.723h-2.001V13.589H72.48z M72.522,33.174
			c0,5.33,3.586,9.012,8.425,9.012c4.629,0,8.424-3.032,8.424-8.969c0-6.022-3.795-9.012-8.424-9.012
			C76.192,24.205,72.522,27.845,72.522,33.174z"/>
		<path fill="#3B454F" d="M93.193,33.261c0-6.803,4.854-11.136,10.876-11.136c6.023,0,10.876,4.333,10.876,11.136
			s-4.854,10.962-10.876,10.962C98.046,44.223,93.193,40.063,93.193,33.261z M112.865,33.261c0-5.546-3.943-9.143-8.796-9.143
			s-8.796,3.596-8.796,9.143c0,5.547,3.943,8.883,8.796,8.883S112.865,38.808,112.865,33.261z"/>
		<path fill="#3B454F" d="M116.785,33.261c0-6.803,4.853-11.136,10.876-11.136s10.875,4.333,10.875,11.136
			s-4.853,10.962-10.875,10.962S116.785,40.063,116.785,33.261z M136.457,33.261c0-5.546-3.943-9.143-8.796-9.143
			c-4.853,0-8.796,3.596-8.796,9.143c0,5.547,3.943,8.883,8.796,8.883C132.514,42.144,136.457,38.808,136.457,33.261z"/>
		<path fill="#3B454F" d="M142.794,22.515v3.813c1.646-2.946,4.636-4.16,7.625-4.203c5.72,0,9.663,3.51,9.663,9.446V43.92h-2.123
			V31.614c0-4.853-2.989-7.453-7.625-7.409c-4.42,0.043-7.496,3.38-7.496,7.799V43.92h-2.123V22.515H142.794z"/>
		<path fill="#3B454F" d="M180.922,40.93c-2.166,2.167-4.983,3.206-7.799,3.206c-6.023,0-11.005-4.16-11.005-10.919
			s4.81-10.918,11.005-10.918c2.816,0,5.633,1.083,7.799,3.206l-1.387,1.343c-1.733-1.733-4.116-2.556-6.413-2.556
			c-4.853,0-8.926,3.163-8.926,8.925c0,5.763,4.073,8.926,8.926,8.926c2.296,0,4.636-0.91,6.37-2.643L180.922,40.93z"/>
		<path fill="#3B454F" d="M181.682,33.261c0-6.803,4.853-11.136,10.875-11.136c6.023,0,10.876,4.333,10.876,11.136
			s-4.853,10.962-10.876,10.962C186.535,44.223,181.682,40.063,181.682,33.261z M201.353,33.261c0-5.546-3.943-9.143-8.796-9.143
			c-4.853,0-8.795,3.596-8.795,9.143c0,5.547,3.943,8.883,8.795,8.883C197.41,42.144,201.353,38.808,201.353,33.261z"/>
		<path fill="#3B454F" d="M208.025,22.515v3.813c1.647-2.946,4.637-4.16,7.626-4.203c5.719,0,9.664,3.51,9.664,9.446V43.92h-2.123
			V31.614c0-4.853-2.99-7.453-7.626-7.409c-4.42,0.043-7.497,3.38-7.497,7.799V43.92h-2.123V22.515H208.025z"/>
	</g>
</g>
</svg>
